<mxfile host="65bd71144e">
    <diagram id="S6DauyzeMQ4MIDQBSMOr" name="Page-1">
        <mxGraphModel dx="2361" dy="1458" grid="1" gridSize="10" guides="1" tooltips="1" connect="1" arrows="1" fold="1" page="1" pageScale="1" pageWidth="1100" pageHeight="850" math="0" shadow="0">
            <root>
                <mxCell id="0"/>
                <mxCell id="1" parent="0"/>
                <mxCell id="13" value="&lt;font style=&quot;font-size: 10px;&quot;&gt;itne size ka agar alternating binary string banana he to fir&amp;nbsp;&lt;/font&gt;" style="text;html=1;align=center;verticalAlign=middle;resizable=0;points=[];autosize=1;strokeColor=none;fillColor=none;" vertex="1" parent="1">
                    <mxGeometry x="-50" width="280" height="30" as="geometry"/>
                </mxCell>
                <mxCell id="35" value="&lt;font style=&quot;font-size: 10px;&quot;&gt;i ki koi bhi value ho i%2 generate karega 0 fir 1 fir 0 fir 1 fir 0&lt;/font&gt;" style="text;html=1;align=center;verticalAlign=middle;resizable=0;points=[];autosize=1;strokeColor=none;fillColor=none;" vertex="1" parent="1">
                    <mxGeometry x="-50" y="22.869999999999997" width="290" height="30" as="geometry"/>
                </mxCell>
                <mxCell id="36" value="&lt;div style=&quot;color: rgb(204, 204, 204); background-color: rgb(31, 31, 31); font-family: Consolas, &amp;quot;Courier New&amp;quot;, monospace; font-size: 14px; line-height: 19px;&quot;&gt;&lt;div&gt;&lt;span style=&quot;color: #569cd6;&quot;&gt;int&lt;/span&gt; &lt;span style=&quot;color: #dcdcaa;&quot;&gt;flipper&lt;/span&gt;(&lt;span style=&quot;color: #4ec9b0;&quot;&gt;string&lt;/span&gt; &lt;span style=&quot;color: #9cdcfe;&quot;&gt;s&lt;/span&gt;){&lt;/div&gt;&lt;br&gt;&lt;div&gt;&lt;span style=&quot;color: #569cd6;&quot;&gt;int&lt;/span&gt; n&lt;span style=&quot;color: #d4d4d4;&quot;&gt;=&lt;/span&gt;&lt;span style=&quot;color: #9cdcfe;&quot;&gt;s&lt;/span&gt;.&lt;span style=&quot;color: #dcdcaa;&quot;&gt;length&lt;/span&gt;();&lt;/div&gt;&lt;div&gt;s&lt;span style=&quot;color: #d4d4d4;&quot;&gt;+=&lt;/span&gt;s;&lt;/div&gt;&lt;div&gt;string s1&lt;span style=&quot;color: #d4d4d4;&quot;&gt;=&lt;/span&gt;&lt;span style=&quot;color: #ce9178;&quot;&gt;&quot;&quot;&lt;/span&gt;,s2&lt;span style=&quot;color: #d4d4d4;&quot;&gt;=&lt;/span&gt;&lt;span style=&quot;color: #ce9178;&quot;&gt;&quot;&quot;&lt;/span&gt;;&lt;/div&gt;&lt;div&gt;&lt;span style=&quot;color: #c586c0;&quot;&gt;for&lt;/span&gt;(&lt;span style=&quot;color: #569cd6;&quot;&gt;int&lt;/span&gt; i&lt;span style=&quot;color: #d4d4d4;&quot;&gt;=&lt;/span&gt;&lt;span style=&quot;color: #b5cea8;&quot;&gt;0&lt;/span&gt;;i&lt;span style=&quot;color: #d4d4d4;&quot;&gt;&amp;lt;&lt;/span&gt;&lt;span style=&quot;color: #9cdcfe;&quot;&gt;s&lt;/span&gt;.&lt;span style=&quot;color: #dcdcaa;&quot;&gt;length&lt;/span&gt;();i&lt;span style=&quot;color: #d4d4d4;&quot;&gt;++&lt;/span&gt;){&lt;/div&gt;&lt;div&gt;&amp;nbsp; &amp;nbsp; &amp;nbsp;s1&lt;span style=&quot;color: #d4d4d4;&quot;&gt;+=&lt;/span&gt; (i&lt;span style=&quot;color: #d4d4d4;&quot;&gt;%&lt;/span&gt;&lt;span style=&quot;color: #b5cea8;&quot;&gt;2&lt;/span&gt;)&lt;span style=&quot;color: #d4d4d4;&quot;&gt;?&lt;/span&gt;&lt;span style=&quot;color: #ce9178;&quot;&gt;&quot;1&quot;&lt;/span&gt;&lt;span style=&quot;color: #d4d4d4;&quot;&gt;:&lt;/span&gt;&lt;span style=&quot;color: #ce9178;&quot;&gt;&quot;0&quot;&lt;/span&gt;;&lt;/div&gt;&lt;div&gt;&amp;nbsp; &amp;nbsp; &amp;nbsp;s2&lt;span style=&quot;color: #d4d4d4;&quot;&gt;+=&lt;/span&gt; (i&lt;span style=&quot;color: #d4d4d4;&quot;&gt;%&lt;/span&gt;&lt;span style=&quot;color: #b5cea8;&quot;&gt;2&lt;/span&gt;)&lt;span style=&quot;color: #d4d4d4;&quot;&gt;?&lt;/span&gt;&lt;span style=&quot;color: #ce9178;&quot;&gt;&quot;0&quot;&lt;/span&gt;&lt;span style=&quot;color: #d4d4d4;&quot;&gt;:&lt;/span&gt;&lt;span style=&quot;color: #ce9178;&quot;&gt;&quot;1&quot;&lt;/span&gt;;&lt;/div&gt;&lt;div&gt;}&lt;/div&gt;&lt;br&gt;&lt;br&gt;&lt;div&gt;&lt;span style=&quot;color: #569cd6;&quot;&gt;int&lt;/span&gt; ans1&lt;span style=&quot;color: #d4d4d4;&quot;&gt;=&lt;/span&gt;&lt;span style=&quot;color: #b5cea8;&quot;&gt;0&lt;/span&gt;;&lt;/div&gt;&lt;div&gt;&lt;span style=&quot;color: #569cd6;&quot;&gt;int&lt;/span&gt; ans2&lt;span style=&quot;color: #d4d4d4;&quot;&gt;=&lt;/span&gt;&lt;span style=&quot;color: #b5cea8;&quot;&gt;0&lt;/span&gt;;&lt;/div&gt;&lt;div&gt;&lt;span style=&quot;color: #569cd6;&quot;&gt;int&lt;/span&gt; i&lt;span style=&quot;color: #d4d4d4;&quot;&gt;=&lt;/span&gt;&lt;span style=&quot;color: #b5cea8;&quot;&gt;0&lt;/span&gt;,j&lt;span style=&quot;color: #d4d4d4;&quot;&gt;=&lt;/span&gt;&lt;span style=&quot;color: #b5cea8;&quot;&gt;0&lt;/span&gt;;&lt;/div&gt;&lt;div&gt;&lt;span style=&quot;color: #569cd6;&quot;&gt;int&lt;/span&gt; mini&lt;span style=&quot;color: #d4d4d4;&quot;&gt;=+&lt;/span&gt;&lt;span style=&quot;color: #b5cea8;&quot;&gt;1e9&lt;/span&gt;;&lt;/div&gt;&lt;div&gt;&lt;span style=&quot;color: #c586c0;&quot;&gt;while&lt;/span&gt;(i&lt;span style=&quot;color: #d4d4d4;&quot;&gt;&amp;lt;&lt;/span&gt;&lt;span style=&quot;color: #9cdcfe;&quot;&gt;s&lt;/span&gt;.&lt;span style=&quot;color: #dcdcaa;&quot;&gt;length&lt;/span&gt;() &lt;span style=&quot;color: #d4d4d4;&quot;&gt;&amp;amp;&amp;amp;&lt;/span&gt; j&lt;span style=&quot;color: #d4d4d4;&quot;&gt;&amp;lt;&lt;/span&gt;&lt;span style=&quot;color: #9cdcfe;&quot;&gt;s&lt;/span&gt;.&lt;span style=&quot;color: #dcdcaa;&quot;&gt;length&lt;/span&gt;()){&lt;/div&gt;&lt;div&gt;&amp;nbsp; &amp;nbsp; &amp;nbsp;ans1&lt;span style=&quot;color: #d4d4d4;&quot;&gt;+=&lt;/span&gt;(&lt;span style=&quot;color: #9cdcfe;&quot;&gt;s&lt;/span&gt;[j]&lt;span style=&quot;color: #d4d4d4;&quot;&gt;!=&lt;/span&gt;&lt;span style=&quot;color: #9cdcfe;&quot;&gt;s1&lt;/span&gt;[j]);&lt;/div&gt;&lt;div&gt;&amp;nbsp; &amp;nbsp; &amp;nbsp;ans2&lt;span style=&quot;color: #d4d4d4;&quot;&gt;+=&lt;/span&gt;(&lt;span style=&quot;color: #9cdcfe;&quot;&gt;s&lt;/span&gt;[j]&lt;span style=&quot;color: #d4d4d4;&quot;&gt;!=&lt;/span&gt;&lt;span style=&quot;color: #9cdcfe;&quot;&gt;s2&lt;/span&gt;[j]);&lt;/div&gt;&lt;div&gt;&amp;nbsp; &amp;nbsp; &amp;nbsp;&lt;/div&gt;&lt;div&gt;&amp;nbsp; &amp;nbsp; &amp;nbsp;&lt;span style=&quot;color: #c586c0;&quot;&gt;if&lt;/span&gt;(j&lt;span style=&quot;color: #d4d4d4;&quot;&gt;-&lt;/span&gt;i&lt;span style=&quot;color: #d4d4d4;&quot;&gt;+&lt;/span&gt;&lt;span style=&quot;color: #b5cea8;&quot;&gt;1&lt;/span&gt; &lt;span style=&quot;color: #d4d4d4;&quot;&gt;&amp;lt;&lt;/span&gt; n){j&lt;span style=&quot;color: #d4d4d4;&quot;&gt;++&lt;/span&gt;;}&lt;/div&gt;&lt;div&gt;&amp;nbsp; &amp;nbsp; &amp;nbsp;&lt;span style=&quot;color: #c586c0;&quot;&gt;else&lt;/span&gt;{&lt;/div&gt;&lt;div&gt;&amp;nbsp; &amp;nbsp; &amp;nbsp;mini&lt;span style=&quot;color: #d4d4d4;&quot;&gt;=&lt;/span&gt;&lt;span style=&quot;color: #dcdcaa;&quot;&gt;min&lt;/span&gt;(mini,&lt;span style=&quot;color: #dcdcaa;&quot;&gt;min&lt;/span&gt;(ans1,ans2));&lt;/div&gt;&lt;div&gt;&amp;nbsp; &amp;nbsp; &amp;nbsp;ans1&lt;span style=&quot;color: #d4d4d4;&quot;&gt;-=&lt;/span&gt;(&lt;span style=&quot;color: #9cdcfe;&quot;&gt;s&lt;/span&gt;[i]&lt;span style=&quot;color: #d4d4d4;&quot;&gt;!=&lt;/span&gt;&lt;span style=&quot;color: #9cdcfe;&quot;&gt;s1&lt;/span&gt;[i]);&lt;/div&gt;&lt;div&gt;&amp;nbsp; &amp;nbsp; &amp;nbsp;ans2&lt;span style=&quot;color: #d4d4d4;&quot;&gt;-=&lt;/span&gt;(&lt;span style=&quot;color: #9cdcfe;&quot;&gt;s&lt;/span&gt;[i]&lt;span style=&quot;color: #d4d4d4;&quot;&gt;!=&lt;/span&gt;&lt;span style=&quot;color: #9cdcfe;&quot;&gt;s2&lt;/span&gt;[i]);&lt;/div&gt;&lt;div&gt;&amp;nbsp; &amp;nbsp; &amp;nbsp; &amp;nbsp; &amp;nbsp; i&lt;span style=&quot;color: #d4d4d4;&quot;&gt;++&lt;/span&gt;;j&lt;span style=&quot;color: #d4d4d4;&quot;&gt;++&lt;/span&gt;;&lt;/div&gt;&lt;div&gt;&amp;nbsp; &amp;nbsp; &amp;nbsp; &amp;nbsp; &amp;nbsp; &lt;/div&gt;&lt;div&gt;&amp;nbsp; &amp;nbsp; &amp;nbsp; &amp;nbsp; &amp;nbsp; &lt;/div&gt;&lt;div&gt;&amp;nbsp; &amp;nbsp; &amp;nbsp;} &amp;nbsp; &amp;nbsp;&lt;/div&gt;&lt;div&gt;&amp;nbsp; &amp;nbsp; &amp;nbsp;&lt;/div&gt;&lt;div&gt;}&lt;/div&gt;&lt;br&gt;&lt;div&gt;&lt;span style=&quot;color: #c586c0;&quot;&gt;return&lt;/span&gt; mini;&lt;/div&gt;&lt;div&gt;}&lt;/div&gt;&lt;/div&gt;" style="text;html=1;align=center;verticalAlign=middle;resizable=0;points=[];autosize=1;strokeColor=none;fillColor=none;" vertex="1" parent="1">
                    <mxGeometry x="-370" y="-100" width="300" height="640" as="geometry"/>
                </mxCell>
                <mxCell id="37" value="" style="shape=stencil(7ZzJkiS3EUS/pq9p2BM4U9R/0IxDTZtGM7ThUBL/ngFrIbvSI+sledOBt17gWVhi8XBE1kv+7pePP/z84SWFX759/fLPD/95/fHbx5f8t5eUXj9//PD19Zv99JK/f8nf/fTl64d/fP3y6+cf337/+Yc5cv70ry//nk/47xsu122vE5XCb29/CVt9+8Pf38Z/ev38OH7fho6fvz0dP7ayy/iwPx9fwjaajg8wPm3VPR/mU8oWdf4xw3jbnyjjc4Hx+5aTjG+wn2XofCLOp8a1He/j9wHj07af98c2DPazlq2e15vxfGvb0nk+ZQs0/33rScZ32J9q9lNO4+1AYP+b2c95vW3bYf4tbfk8/52fn9f2rfF9ax3G236O0/jB4+tWz+uNYZ3gNaBt+fwBMW69AWDf0vmEY1o+fQ3oWxBA3gatoa8tPACFP2Fs+ez0sW6dTmGsfx8AO2Ywu92ilAD2ZejPAE0W3ZdnPwNI4IpjucY1IOo53IQiA+R8BlgwAN+fgH4GJAyOBihBAQPOYQLO3mzhgtz5AlDQvCfgfHAWANrNGs4B1SJAAX+YgPPBWQhIvK2S0iwGRLIlA3QFDD5pBYyVpp8CzkEgh5UXnwEkjOW44sgfBaRlv88A+9lac8ZMaIB+XnQua1XXgLR2/QDULdGiLfXJlNoWaEp5i0kBnaaU178PgOU72iXLfrKtFjwpalS3S5ZQyLz3tcQj4TIj2fuy/gNg1kXWahM4b6uRsgi71MOy/gdAh4PraXGQA2BpGIJAz2vGB6Bg5Otla7sCyPh624bsUl1p8hrQlVgZgBxoWDZoCigEcA5UDjJxDcjLch4ADYxvVM1AEwCmMZqyzztAX7b5R6fU1YEmgBY9Vs58BIADDUdOZk0AtmSA5qbUGeDXQGnXAOpADZlADEHLBkMkWPU1gsLA5aQqTMoA+1AAcW8DVAeguDGPripg8FkHcaEd44aZ3+4BtAYfjvdVYT71OVm0sQ3yiKyMyQAV6LrFDY2uVpRSODb2EhRArM+CpSTeGtA0LBxL4q0H+X2WIYJ8QuJwfMgQDwA6h5kWz2GgZk6LbWX+A1Dw4Cy1NwdA1leUJta6CPwzeiL+YOU7FgRJ6boBbkicVBBW8OMuhS3Lom2jb2pFWcPA2GfVqDiQAQZV1PtSwA4JIaB5Wwnez6bRIosOTUWilrCoaVVtaeoQLCMIAWrMZwwQz7s0H0EyQtU82jg/TMA5LtlG332CLLqvOPJMaxFOZsbSwKcn4OxAZo7Evi8AkeWiqlnUXAo/oS6HPAAZQ6Xf1hkWbs7hHPl2JqL+pC20UWydthQU0NlaFbCz6OUBnT2uqCxoVQtVcgYQctIjFvkGENZnOSnTGoqGSqtaiBsbIJ592tIk0R+LEaLDWSIO5HFZxdy+IxNoyamhnW0pao7rB+V6pucKmzEALbo6fj+Ya1iCEsV1EiKSsOvy4AfADmswoiB3CCOhUFGdnGOAHQ7O+Fc4ZyBjgUTvJzV3API4K7iF3Y+CKlmJbkoFq6Dc1bwHs5lclQkMjkvZkuxQAGXRHFQKmfQdFp26xlYDUMpKTXmrAQYsOpVlmwfA9g3WkNIKjA+ATACz/q4Aog7RFX4GoDvE6O7IZtkPxhebJsX3sv8aUJYG8AAgzhez3g+M42LuGhC3nhVAF4MxLPHmAUCm0ZXMzHqZChTn0QMtqWmp+1DyX3u0i5MDs3pWRjkXDGfgSrhZjcOOOoFiNNzQoETJxmdYb9D7mcEiS9BqzOLXgIAX9A7LxqNROxOtmBSiSmk3z09Kt+f8weCSC44NU3nSaxMbTxkkLYn38XxhP5OWPFN9BBdOLpI2vKWM6zQfQjXV89H5y46yeHT5b0cuFZTdzefD/IPyzcHaVtDOBNufzv7lzouqr+DsrWFisvk4/+X1Zu+PEH+CS5QV1xv1+mn6I+UYZ88VaWNUlW3OB/w9XcUr9N/izovsLekFho0vEJ//7PisnUhjR3901f4NT3HK66QpsJ/dxSsmTsOdV8cGgOju8w1AvTPR9fLYDpFFGA1Sk9hRfYhVr8HGfkfl5JJqsN4XD6X4EUBZKal8ZwDkr9nl1R1roVS1cn8X6a8Buxaxgy8uzDS6D3XkCkkL8ZtYlMsFmSAZNe+OHRSM1iW4RqbCdDG7g8vo//PSS2yJr4VLdxktIaOoPmVGbBuqSa9UDUDV1lTs5aRZUaxN+88MgOrDrpe2nTvKald1ekourKAooLNQG7Ta6jtmthZ10b1xz1pUB+qVJfm0dKsHrQyF2nShxlHkay69dTa+KfELIGJ905xcMTVLEgiTZtA7VTSpP9zprv4TbpTdKwBqxy7H3anTSS/P7/TvpB2odwp70pR1p+EndaC7WwIPuLmHcIC7mw4P6FhMNRf5Gid2A0h5NG+5yIGyuw+qS3l6BtBbs4IEqzlG2biZuRUtaVu6A+iiI0/JaccWPImc2CYKObHwTDfhdkwK6IvoXwNcy81UxAkwdFstiaEyFbQrrlZM7HvSUtIAdA8xG/XkNp/ZzIwRcu2csTjcD63lAYD9wPtieAcg8dX50DaMGrFLtDtBqEYMlZbRdEoBm6B7dQ1iAwOZ5X25HzWORhrSCNpVcdfdkrS9d75xQV1GxbUCNpTBxq62ZACc0l8taP/bpb9a0C6P7v+tBa2rMDmnRGtoShMngM7h6MN+BFAYyBdTout5K8MuzoGC5dDEO08avPoilDV8c6o31zfd8JZ39hy7MECC10VXMzf4WkUikmmp3AYdnD8wmbakJQ0AVvbTpYRVJBpdM/fgN32PoCRUNma94PrXM02p6MVTCagwGT2RajSPu5cnhDFl5mSTMZ0Dfr5toxOxPrclXz4jcdK0nytygdl3dz64XLhdxfGZnPFVRQNIU48ByFoNIDTx5p2UCwC/9TIBskv8Xo0H3Ly504ZWQTfvBk1AVQA2JrnekJv3m9rQJoabN6iaS1mJu/ybI0A3b4FdADILRh5w85KjX0PiXil/cJF7pbq2oM0bKjLvriVHHOzTXd9ki53bSrt7+XhnhWnXrgcD4C7tbkqN23ubUrhY2UWP5x2A2/5HqSBixnA/O/sEkFbT8jPdQXcpcpGf1DTijSoQFTB4RsHpp7jk6mjujtJ97dqv35CY1KZ8r7JKXlYxcqRobK2YtbmkdLx6r45OZuR65ehBPHwZw5EVtVKqswWVoy/tMAjs5TFa575FgBy/eAvFV8uMchWdD6WQ2fznxtN9V1caya97GLnJOn+qh7NvdsIyL1fViPmeaHInfT7dyczWxabjudVReqki2qeND/p86kXO7i6dW2Cz64OP2PqTXZN6QHUhO3sO+Brt3E/9lo4G9vnOdR/G837+uW9JuR1vP7x/JctPr58+vX2jy+P/9Stc7E9vX/+Sv/8d);lineShape=1;" vertex="1" parent="1">
                    <mxGeometry x="-116.85667380357381" y="-6.512278639636179" width="54.100844064199535" height="94.15103806580355" as="geometry"/>
                </mxCell>
                <mxCell id="38" value="if ( condn ){&lt;br&gt;count = count + 1&amp;nbsp;&lt;br&gt;}" style="text;html=1;align=center;verticalAlign=middle;resizable=0;points=[];autosize=1;strokeColor=none;fillColor=none;fontSize=10;" vertex="1" parent="1">
                    <mxGeometry x="270" width="100" height="50" as="geometry"/>
                </mxCell>
                <mxCell id="39" value="" style="shape=stencil(lVjZctswDPwavWJIgudzmv5HZuLUnrp2xnF6/H3BauSagLVx3hQHK5A4FgtN/PC2fXrdTMG9nU/H75tfu+fzduIvUwi7w3Zz2p3laeLHiR9ejqfNt9Px/fA8//361C3704/jz/6G3zPOk0sdFNyf+YdQKdZ/v3yd7fe7w5V9pNi0fQvr9oVCHe0LOfB+76gEDagIEKnFEdCIwYl8o+QGADvisg4IrD2wJw88SEjYADLwwIFiHgGBHAJk8k4DOAGAXDroIxUGeQ5Us45SQ4BMzuShgDtESVPTgAQ8JF5icnWkBPKQMjWnLx2AhyxX9CZKIKxZiq/pPHjkQbqlakB0oH8CJVManAEgUbXV2gCg6kyHS4fcBFS/pOmqRUMEgGhKI5H3AJANyzD2UHXihNgySFzzy/sWgM+UQLW2qo/klhZcs2+s7BEFNOmG0T5RxPZ5bAbPSy2uAVQziAcGMfXOkVPtUyHJdBdjJSXJAnAhgDJ2Q2aqoKMFEEdAYcoYoIiyyq1A6UneVFxrgONEAIG1B0Yeim7QEimgUiqURoDQTsYeeBzq6cIiqwCV6fbRHTR3Z9igAshjg8rcLiisRQ/dtBTXWhrUzHVQNoi9Kr1Lta8VUlAhoogLL6n+FGWD+1OVhVAYLLxmRglDKdYBY9Ki8DbmmKrqSF6BAWn0UIT18KVV88g0goUnw2qsI2lPBwbubQCKkkR9DKuUYgQe7Oy5Ys47x1ufLuBMdoA2mVaAie2IbiLcQVytCGgiZIAHKzOaW0TsnUKmSvJBbVip1AGfEmMVC0or9+plSN4pKPulkQI1klXKC+lDK4p7HoAHK7vFQwVhtcK+OcjEdnXoUQJ3sMuJABiE1a4/PXGAvO2CVS9keOcKJ5dGpWGXxK4YQVjtGiqJY+TBLLqN4b5kNmlpaRQks6nLgQrSe/pLgJzHg/PIfHX6/Wi5cjf6HxGG0yKmJsj0oseVNGxQVglHj+cRhkIZNmo4YwVj7Dt7wPOr83QugPFR95XOjoAeTTylT5F0Nvnqqy2Mj6oHWSMRN372y9PH9vLw/zPXy26/n7+SXf9ffxaTn+ZPavz4Fw==);lineShape=1;fontSize=10;" vertex="1" parent="1">
                    <mxGeometry x="373.2183472217441" y="18.10646584858864" width="28.215066238968248" height="0.92533421363045" as="geometry"/>
                </mxCell>
                <mxCell id="40" value="" style="shape=stencil(lVjbctpADP0aXjXa1V60z2n6H5kJKUwpZAjp5e8ryqxjLXAavxmsY62koyPZK3l42zy9rleR307Hw/f1r+3zabOSL6sYt/vN+rg92dVKHlfy8HI4rr8dD+/758vv16ez5fnqx+Hn+Qm/L7hMRc6gyH8ufzCF/O+Prxfz3XY/Mw9KnJ29UNX79rFRYGevFNt9eykUg7MPgQJwkBKF5gGJFESQA6l6gJJWAGiUkgNYzAkcqZR+ewJUinIfUIXEBy1MigCNmj+SJBIAUDuSL4MoCYihBWrVAVKkAgrXrHDeQ6owS62Nhcux+7xNPWZi76IkaiDqVol9ISrOq0WtPupqYYEzaabsPSjDNFUd86qJYoLcGIJWIxNmHxcHaAxjSFd0tdIgbljLKY+ABmJIFkNcBAgkacmRxJ43eFDYEEb/5nXPCKzIg1LywtdyZ/w9QB4AJhsFxjB00JmOKEtMMnhgygGmdZA+bVQQQPrtGQApWcq9TDNAipB8rY0xoAGUtLN/liVBANMZH0OLpKBFDTBoZUtUUAzXHkrn72djqJB8N7LUurR9sg4G0EWVnsntJ8lkLgrihtF1ECalinq0jbuApSkta7kMt5MbTZ2Il8lGhOy7IUxMDffoIH3WQWifWQwogbKPwWZWBMJUaqfONBWtDmCi2MzKnq41dZ/39plhS6yBCqi0zUDxaS0Z1sFyUn2lsz0CT/bi6Z25H/I2wPZUn9ZU4ICoedQZW7GQbBQdtxOjY0GFi11KZ2uiAkBOVAcPTBWxtVL1PR0L5JKJwNCiMUKAxD4DZ+t6BmmN08Y2ATJcBex28zHYK0cGdZCrhoM5it37h7kA8zC+bVS4UHKX0KkR4CThvmxOrIYb9NXGneDo5HHPE1IwOLm/Ck5coAqfPshQgDoXRqYFYtDwcRwFDDVO+t3ZezNqFMplMEfDdeFb+X/N7eLjA8DLdre7fD+Y3x8/GNhfl48N8vgX);lineShape=1;fontSize=10;" vertex="1" parent="1">
                    <mxGeometry x="397.7454717311923" y="13.85109821325841" width="8.593442088160419" height="8.751313696361066" as="geometry"/>
                </mxCell>
                <mxCell id="41" value="count += (condn)" style="text;html=1;align=center;verticalAlign=middle;resizable=0;points=[];autosize=1;strokeColor=none;fillColor=none;fontSize=10;" vertex="1" parent="1">
                    <mxGeometry x="397.75" y="3.2300000000000004" width="100" height="30" as="geometry"/>
                </mxCell>
                <mxCell id="42" value="if( condn ){&lt;br&gt;count = count+ 5;&lt;br&gt;}&amp;nbsp;" style="text;html=1;align=center;verticalAlign=middle;resizable=0;points=[];autosize=1;strokeColor=none;fillColor=none;fontSize=10;" vertex="1" parent="1">
                    <mxGeometry x="250" y="54.85" width="100" height="50" as="geometry"/>
                </mxCell>
                <mxCell id="45" value="" style="shape=stencil(lVnbUhsxDP2avGpsy7bsZ9r+BzOEkiklDNDb31fbjDexlD2UtxB0diUd3bPjm9eH2+f9LoXXt5fjt/2vw93bw44/7VI6PD3sXw5v+mnHn3d8c3982X99Of54ujv9/Xy7SC6fvh9/Lk/4fcIFanEBpfDn9EWinP998eUk/nh4uhBnyrM4U+Nt8UKVJ/FMUrfFhUI2T5e2Ld5IkhFn2RaPYZh2lo9A+ZgoNuObjp7P1JORb8DaWKh0I18TkBdKbOQZuCe28fqzfCzb8hoLebY3Ugf6L48LRr4FIK9sRiNfgT81elIx8hnwlSpVq39A9gr1WT5QQfZ24mjkI/A/BxI28gH4h5NNrgD55UzZ+gfFD4v1J1MCuZ4D1ZnfPBS8Lp+tfIXFIXcKc/zHODS8Xk202MgMaBSAxaVRNRlWBidXAVUryGwCM4zpKlSMjxIkWQL1OShKoIRq4loDV0CjAoyWOhRYaSgUQZ6J2LysbUTWdUC3iV+VShAZTStLtW8QYENbK88FgEGsNqbqbIjoDYWyuDcAo5sy3azRyK2tk8zBp9wHkM89DY0vACiBuibc3NAkworR+/j3BaBggDFaEqwZCpCZOMmw6SigGS/JiK4tgKnaGl0oRWMINiFapoZ1MtHXGiaij+cNgHLJICEWN80qKZcdq1Tm+O515NQm1Q5QMdUm+vo6n1wHtKHxClir5xagzaWvKzPIhmaDqVVK+A0WkOCI51WSRgkktTdaCgUcGjapEwnOIEOc5mj9UGgooCEbXPBpj3mnbJjwXnoMKK4+gWRV8r9zVFcNFH2+DGiBxn41habHMU9vusnEt5YyrJIplppyAQPYAQRT/UGA6xAKgHXG9aAukAff5TRFUIfwfXRJEcCD79RnKjdnAbOXBDx5L+NGsa8oCKADTbJWvzMyhWSJQJ1Xu2CZU0irK9p+tA61meq27jdbg2WdVVI3QBuCG2iwSjoc8wzQSTQDlXT8TjNzRcYFYXPAN4AAdz5dIYwNmWFoLEuKORoIHGh0CypzuOoKgXjwa5YCUA+6ssdlfLRxiyJX2Hj9JqrvRK3dr7oKQNOG36VZYMb5ZX3hAfQgfw1Qo1Es+XODAtA66u8Zi1tBl/MHE9akRV5yFxkFoL3Jn3wUUNCNy92UFIAmV3+0UgCKJX8V03BsyAZ3dlOAwOHB3fU0B9Eq5+6GGdrsz5JqE4hVd/XUfOrAYn9UZbifuJutUoBabrC78eJQUGDCqOoX+jCgOIxytcpHmJqB4uxPZSTC54c5MZOONVh+TrPFY1AfIx8rPNw6fTTG0Tjs7O3wgOPcWeFZ0rGlwQyfXu3Bv4PY/+DvA++K64fzTxH3h8fH0y8Zl/+3P13oV6efPfjzXw==);lineShape=1;fontSize=10;" vertex="1" parent="1">
                    <mxGeometry x="372.59000860656874" y="79.16757866267221" width="27.421418387893375" height="1.356518650813786" as="geometry"/>
                </mxCell>
                <mxCell id="46" value="" style="shape=stencil(lVjLctswDPwaXzEEwec5Tf8jM3EaT9M447ivvy9UDxUBstbtTZYXJAHsAqB2cvf+/PC238Xwfj4dv+5/Hh7Pzzv5tIvx8Pq8Px3O+rST+53cPR1P+y+n4/fXx8vvt4cJOT19O/6YVvh1sYuJOE1WMfy+vAlUwt8Xny/4l8PrAi+Jcjb4Sr1u45NQjwbPiWraNsiBOFiDRrkAg0qhGoMYqeZtg6IuO4NKDHaogZoYA2FiBgaVovVBwyZghybEbodCHezQGiWbBmlU+rZBL5St04kpgiNxCBSsE6lSBRY9U7MGOVNHZwqUrNe5U2jA60jdGpRIEkEihJI9UtFDAroWoWzloMkPgExZSOwOVVMN+K2CSG4HzRw4klLHcWNiC5BozJSKNahUQJQyRTb43scZr7sw1LLAd7C+UEgrPPCYqa/Wz4BHvFq/DcFexQcSK4VeYcFQBtgEqJgSoOnMmBmfieH6yZbILtSgv+zwkRrIV6RQPB6VL/EtoTNVVOMpVo9HIsteMnoeAfEsI3qL+KDSVai6+CRKwF8ttc7fPFbYwLs6p/wJIP6FxOmrUUQtkLLjWx/9ZCP+a3xDPXxEY+6wH7V+g0DegQ47AY+ivMAzCGgYDX4RIAYBWo0IKkhUgFadTBOMCkoY9FoQKEJ8WxEUDRS8Iugc4X/HA381Ye5A7cZUx1Ssx7VARqRAvVkDHqreGuuq5VApo01dF00YKZoNmBKoKtqoHa1zGZ3zukH3fTLPYbg+fhRf6FIjAYVd0+SipDsw8KHlMfUtdojIQKVgd0h5VLOtiahbaqQIJ81SfbWWPuaFrcQVN8tmyCUdoYoNq2gqgdxSoWKjFG+y1U11k6RQBwxjcJ1LZB7z83XFBT9DNTj6cvc9v+EK0KjaA9WxwBZeLLe1CaHzNN9jM74dNH+HSnAmVbwb9SOOj4bP3QKHlLbi6a43DLU/zYBWN0oR1AHZqyDAEUrdc6XiRoeVMREs1kd8+89r+228Pnx8I3g6vLxcPjEs//ffFPTV5XuE3P8B);lineShape=1;fontSize=10;" vertex="1" parent="1">
                    <mxGeometry x="396.638656762163" y="78.89438266259731" width="5.771870481589968" height="4.867412540094217" as="geometry"/>
                </mxCell>
                <mxCell id="47" value="count += (condn)? 5 : 0&amp;nbsp;" style="text;html=1;align=center;verticalAlign=middle;resizable=0;points=[];autosize=1;strokeColor=none;fillColor=none;fontSize=10;" vertex="1" parent="1">
                    <mxGeometry x="391.64" y="64.85" width="130" height="30" as="geometry"/>
                </mxCell>
                <mxCell id="49" value="" style="shape=stencil(pZzZztzGEYWf5r8lel+uHec9DFiOhCiSIctZ3j7V+UEOeWrmo40AvpClPsNeajm1dL/lH377+NOvH95S+O37t69///CvTz9///iW//KW0qcvHz98+/Td/vSWf3zLP/zy9duHv337+vuXn9///9ef1sj1p398/ef6hX+/41LcDLL+C/95/5uwhfC/v/jr+/jPn76cx5ctdxkfK4zvWw4yPo/X43PYRpHxjcbXLeTL+LiFDuPnNoKMr+X1+FJ0fNoCrLfMbSYZX+fr8bVsPV7G5y02GD+23mQ87U+L25yX8QV/v5WtJhnfEoxvW77+ft1ihPFd11u3BvvfbL1XeWhbgvNtc5/uY/yE3+9hq9fz7VuD8+pxy9ffH1uB+fS0xev4uSXYfxs/r/oVTSHhgHve+lDAoC8UXXE0FaAlVF1CTFuiPT2O9AQYoDS9OSXOWwGpM4BYoVjQbBmgTgU0kFMDNNnWioK3AEkBkw6uuXNoW+dFJ1lD33/i5bbKOYwt0ZSqk6WJ1s4ApShgkGgUNUfLvtOinbSawc4k3tl9Id0pUBkK6GQC8r4nByDf2QDRBzOqiYQv7Tb6BJhslcRKmlntGQHlaobNThY6uKiyZIYy0raGrVcFDAboOYytMiBdrcaNbTXfMIMCyDkYQJyh0ZPGX4jXKeW4+8dX7q2JO7ezZ3+YigIGOcSuhCobYwCrYQDR6VyQshlA9MFIGYm3cYYuu2SWiklGdYBxw0pkW9mtL8BVNPJA3tYOGnIA5j7Jl4DrLpWAzPMJIN59QahJSahAzXmgklm8m5Jho8edAF2ji1K3QWswenjd1mL8jWRpOL7a0e2aiopoGGUPZIwtYBHGaoyMPFBUWaqRv5D04AwwySlmtd71xmWZF73KUs1IuxcTkDWUrZBDafsEDoAZASInXY2xAdA/jP1cD0BD+jOCuqzad575HGDHNBVAjn2kPdY8AcguGWBehc/iuQDnMMpu3E+ABIxsVKU/lTnf6GrI6kB2P8xlOQCFlDOoU1yLhl2aUan02lZY9Mx7zHkCNDjpWZwC9S3TF6qSkyVLIHzT6JRoXEO3Ow86dQKQAk1nKutB358DhjsHWxV9YTjxLmi9bUpCTgxAHsi2VejPjZmZ3vIVJFgz7empPwoI+66fp0RG4NCvE6CRinaN49a2gn8Y7cnBkQKZ1ZhRARS8jrxnAE4Aygksy1cUQNbbjHGVKTWOgYxKBwUQIzOHorLUOXhtzrF3ZGTmFFUfBn8hP7HeuIa0p24OwETbalxDvehED2RsZl71oR0n8wogtrVFziDO3aicAJ0ilLEblQNghIhI4lAFMgDxpcUqr9va8k6IXvJWmVJBY7xCmqgAclmL3cuUKrP7qvH0I2Z5BRDLZ6vC0NKlfm2jiS81J94GmHTSWZmxCQtZDTtXycKZOGK06+ySaQh+weVzVwaWDi7sxv0AZMzNtCNaOAAVwwHTYAnAVyIP1mBGRcIys4VUlHkQtgPAnG8Zxqt4d0611CPrfqTJj2zNK4AQLGPjEXTaAJJ1MMCkKVX1cebEiC9Vp0DLTdIaiqZaBuf5FjuaCiDrvaiIfKFiNtQAyQEonjZAuOqDsQ9KxVsgKZbPAKRABpDcvRGiQiWyvDPtAzCQe1sw3LICKFI0QJQpTQzLLD4XrmEACjgMIBRu8UzapaCiYYBJawiqDxZGkY8rU3XauDJJazEzMxVAtrU4M2P0ncKBcgjCAShoNUpTjZsF6w+lKbtfkR0t2gV+BiAfV4om++dh2p4DspITA0xa9LHrB6CjEShRMycrdiTRCJqmWLEjGIE8lZwYoMCU8tjDvBOAppSdQ5mctstVk5sGIB+Xi1KHObEkktNWmwKoppjj7sZPgA5fSK6YbQBilWmoy5oTmfGq+rg1kHinw0HtgBhuOkayRk23CFdrWpMCaYreMjGvjM0p6cQEaiwa5K+zJkDcdfgMoGTLngI4jcfiruZbl7SSn9a4z8ZnspTKNJb6wIKD0oA1HgTJVfvWeBDt8OQAyFsF13fBkXRQ3rPsC4hQUFKyxsN5efc80MoHTQfaeGrrCFrWWONxf4QNLwOM61X55PFRWzrmEaW8GJ+SGw/yGZ+sl4htfOJwqE7kx0+s+sQ9f3yWN5x/8vqC++Plk/XF2wfWR+/MKMILu/U4j2d5dr9P/QNeXyY2lj3VR5yPl08KW1wRY8knzl9yVGs82GfXh7b0i+2tJ1B4vn9ufNm91R/UR5ejXvsJ6+1/ks/NJ/4rkr4kTbvcCFx0NaEbDVjtWs4lUd4yHis8A+CMkytILicPX0iuNemGw9oxK3FnGpFcE9qcWERKrs57QzzS1ILkjeVaPTkOQCdtxF11f3LTsKs63Qi3xRJqfQf29mUfl3LKInet6BsAd2k4gsbZ3ewZaceeMosaNZDtKEvFZVEmV2yKj7galtostlYv3jihULTpxsJ9NJPFxdYVw8zimmNnwUiiuDKVAYiZro4Z0YeMVqN0N6XE+YHhpDXtluoVQNpJZuQpmQa79Beew9RKwQycP3aEZEzM0xhAdmkcYefLnJ/LW2KyNioHGB2rHQaQuNcAmQBJbetomFBYqdSkALLeBhBzPyryhppd7rXuAv8KIMZ4cBPaylC7tDxR85UDl23NmM2qrnK2SgucZZcunRE5u1vdoiOGI49y/AEIfLHENaz0QwefA7qKdx/7Ub4CyDn0jm63jr3v9AC0u8qZBAGr35xOeu756AOQud0waNm237TfBjXGqyBJZduoxLsHDARa0kiyTf5C0sahxqFMy66i37lvuijRbezYV+lZptT2fMBzgLv21SoS3fXP8oWCudfmGukau93VTSuL5kssvm+6cUGyda1rGYCIbhtq7pd0kXhPzTIYgLJaS9SkjSGgf+jBda1N7kSNGrhWTpz1pGHZsiNwDv7GSOXySK+uza1zL1NTna4Nb+31oaJhALKtZqt9Axd5oOFqEZUryebRpDa3mtCoTzTvzOIAlJ0FPgdUZWS1YG1uVaazAmiXhm8Ry1jtGMPJUsYs7Jhu0ZmbMp1/WACQ1plcn2jGbZ3uftOjZP8cUJ4sGqfUXPttRka26pXZbSucw3TlwsXRqF93ajp2tX2CtD4KRmdphUWfilgnhcA+6Knx8WpJoVZUlwmpDVVu5QwcgLII87gVcwJQpW16S9a5h7i6ZldukZ/uPuvqVqJFu+aNZe+5w1d3iS+ajeF0dGAmZEVhbg14L6BqVXUBqIe4aN22crrYrLFvwscu5eRc0EA6M+KT7liKwIcr0S2/S456Op/V+SLycF3KjW93N3c/o/Fdn6pJshs3agGJ0pmCdeHuW7Mz3/VJ+zEdgMRX4KPrg068aFeLXakOvkepgICOug13lY2rP60rvS8D1+AbdlfajOm9tFasq2y0hroL8wEoHMhVPbhy87aD46GFH5tYLcGySzdXCj3g5tJiVXZydy2yavSa2RgvgHyh86XFqomN3DjMcpdSMrd8tar+IVfsv31yPbVgzmtJq6wh8zl0ldbMNwQNIGYmJ0zOtKGh4rrqzF374hRzYGl1T3+sJhl++0Pydol7RNZd0Oui15VzWsPU5u/EbKZNFY11bZ58XFBqnBrevu5BpTVV1IfuIr/1uABNKWqpKXH+tEf1oikjI/Muaz3BQE4xaXdVivxAQnZfiPycR3ZvBbDlM8cuBxe5pay7RtF4cxG5aIgSuWt/3TNwD4ZQHnslNq4nvWrcdA5VqUNkU7kASQGJdsn5uPVwC39B6v6R83bdvfAUM9+IKpoJiQmDpl6UShuAbpv2rGwmRuatSf1DDPz4jGtPjIGvazt2P+/Mklaa+NWJ6coP3G4ytBTcsR2kdWVjDVVhPXUgPB2Lfa06Xo9xcSuaPSh87SjqegtfaXDetmC1f6VHhDCgEqzbA+Jrcf7FKU3C3J7RRlUyLJBl18gSuXnbJQG4npZcsp7r0Y8Xfh7j6TbG4/OP8bQ/9s/yzlzgNhzXD8jv8D2e3TuNp66doImhgLcTH9vxGE/tjGt81vF/8vfxncIn86eAc43X/SS6vPpn9fdJH9f56nqJHCTH6m577JPKz/833v7weGTyl0+fP7+/UXn+d32U0v7q/UHL/ON/AQ==);lineShape=1;fontSize=10;" vertex="1" parent="1">
                    <mxGeometry x="-90.16075788940407" y="289.10969930161787" width="40.27638613677304" height="117.8554278444339" as="geometry"/>
                </mxCell>
                <mxCell id="50" value="" style="shape=stencil(lVjbclshDPwav2oAAYLnNP2PzCRpPE3jjJPe/r6iHk4OImdtvzkOa5DEalfs+Obt6e71YRfc2/vx8P3h9/7+/WnHX3Yh7F+eHo77d/2049sd3zwejg/fjoefL/env1/v2sr26cfhV/uFPyecp+wbKLi/py8ClfD/i6+n5c/7l9VyppCG5b5QLtvrM/G4PlQqeXt9JcfDehZiv73eBwpuAETdUgAgURlPlEL/5nNAJakjoMAdNEclDoDMFEEMQWwNcqEQQREcSRkA4ilWANADjEGL5g2VWbPEdoeKdhCqMh0JBM2V6lg40ajcNiB6WzgFOFCHqHUwaa2UGACSTasCHLjcUUhMpQuOQYOeAAnsoHczZgtA/EmJ/BR0AFlKGsOcJVC47MjLNWnNoYe4AkTUMyLVPAHQkbRHsAUwIFD7vSkGB5pAu8zO1iGDHYQ7gy/ktGjhxuutUVV0JCFXLUBAHWQJcQVI4C4VT54nANihaNB5AoAYSup1XQEyIFCRrjbroMH1LjPjMmXQyKq2GbODchAEXQu5MABioIoBcTyStjbGAHOkBgBprUr5Oh0JBV37ZV6pKOqtCjBHSq7X/nMVddqsRwa1VgUIoVsYRWmdBwdh+32kgoNIY+Va+wZ9RgGGo9oXGFxXrZyMO6juIu+ggDApe0E7CBXTBbSWyGApI01aM3kMYENqjxkkPSdLpc9QTnpOFoDHdRCrKKrEARFCrNlQcyDoSGVi0JmgS++9K4DHl8+PaVWOIqGui8ougNij2uSDaUwF9srGOENq7jp5MalL59SFfUO9MZ/pTLMGoetaJwY5KCnXA4K9rpWhytXFpy4AvV5IRyeV00MKUupJR1str1Lqj3Z7oRdYFf9Cu3Fmi9nQtNuCdpgsU+MIMJazKftQygttX9NiAJiNZVN75HUn66oApHKzOW4AQLnZfjfHAq7rbPAbANRhHiEaAPTveUhphEBTzTQGKSCj2W+yfQpAbnoe5VqlrxoWP3zdheNoFciHNvBGC0C9Ukdq4wVqhlniZcJYAKmnYetZwLyF1AjdBvMnvRIpNWvvHUVLDbkHBApCcQRo90TvOYH7iRcAw2HRa1MZgxY85fs0ARiaB++7Lq/HIAAoXW8W2a1wGk1dPVYGCw3UvovH6hUOjQOOeKyBx08CznofL/DNQZXGrE9djrbWj23bh3O/b9p85+plx5H+CLkV7VjdeObXTTIDVEHXI1tihTbSWZ+6bLex3AxhWPS9fY11cLL1lrseyvGVb9Vnl+uHj2fxx/3z8+lVff1/+4yuX52e4Pn2Hw==);lineShape=1;fontSize=10;" vertex="1" parent="1">
                    <mxGeometry x="-45.17045424003322" y="351.705959077098" width="26.50125582095726" height="2.3001412758088446" as="geometry"/>
                </mxCell>
                <mxCell id="51" value="" style="shape=stencil(nVhLblsxDDyNtwQl6rtO23sEiNMYTePASX+3L18N2Sb13gTozrE5kUgNhyPt5O7t6f51v4v89n46ftv/Ojy8P+3k0y7Gw8vT/nR41087+byTu8fjaf/1dPzx8nD++/V+iVw+fT/+XP7D7zNOqMQFFPnP+Qsm7v+++HIOfz683ISHTJxMfKSet+NjIa4mvlAp2/EilNjEd8pxOz4FSt3Eh0ilAUCnKhaQqQNArpSCBXQKYRtQEolNIQZqoKaVJ0CiCLZUM6ViAVpmsKXaqdtTjpVy3QY0/TlbQKcm24CuvLArSKQIDro3EruCpJHVOvNYmWnLJI0C4IYuUZsBpAiXWJJwgEItgTJ1ipYbOVAEW2qRgj25fGmQ9ZMTqrauJYyz3GKfy6E0SqBDs3LNdqjSiwEgJeo2hxaIUU9rER2gUEYApmBz6GHI1LrKXHZ8AZSR1TqZqpexXimApBXgdFJXqKAhwsRvBaBzWFSleICghtCmrtMKAKDSXnnKAdBbdSuWqUpAmBRQ2AMqEKYF4E66DTHcAmT2gIa35AZQ7yQIwJTEAyo+hzKt0BH52hCVy0S5atsWwvO7Q2FSusq0p4xWKKOKNwBG/C5TQ6jOoKwV4Opa4ckpoE9kEqACmrT3DpoVark2vM4NALmN5eQmgKCk+6D/bY+ihuBRxBtAAeew8Lv7KjHSSu2g4AEZrzD3aPigR7sHFGCAFp2ZWg6N0f8BJNdAafyLLd/aLL111iM1VuPqkm4JuhN1rk42ahtedn1Q85ChCyAOqVq3AuxHUMlQjYsqmQVkLAK1DjN/AeDrgNaE7cGlClu0KXOsViYZ9mPdwwUSB2DqQCp7pOZsZR2+cWtLroEkw4mi9ii4FSKcKFrWYHMQJTzIQV2is8Zq15EVKJqiJV+sUMgW1+kAadRtna3ZezjtQUQNJYK/yTV4bRJtectWvckhmZGLTb29KyLVSL6sHU+s6fJa8Ej0M1fwUB+Xwmt4AeHsj1hGZ2yEO8cQYZ/xuANfw9HknO5uEd4x2PudAK+r7H1qgNLL85tHRVPft6+WCj2ReF1neLOIJMGFw/Ht+xA7x5XnHTS6P3wN0g/Xl6THw/Pz+SHq9nf/8qRfnV+t5PNf);lineShape=1;fontSize=10;" vertex="1" parent="1">
                    <mxGeometry x="-23.487270236964832" y="347.5133432069249" width="10.044266799231597" height="14.014253700022339" as="geometry"/>
                </mxCell>
                <mxCell id="52" value="&lt;div style=&quot;text-align: justify;&quot;&gt;&lt;span style=&quot;background-color: initial;&quot;&gt;jab size fix hua&amp;nbsp;&lt;/span&gt;&lt;/div&gt;&lt;div style=&quot;text-align: justify;&quot;&gt;&lt;span style=&quot;background-color: initial;&quot;&gt;to simply max min jobhi karna tha karo&amp;nbsp;&lt;/span&gt;&lt;/div&gt;&lt;div style=&quot;text-align: justify;&quot;&gt;&lt;span style=&quot;background-color: initial;&quot;&gt;and then arr[ i ] me se minus wagera&amp;nbsp;&lt;/span&gt;&lt;/div&gt;&lt;div style=&quot;text-align: justify;&quot;&gt;&lt;span style=&quot;background-color: initial;&quot;&gt;karke i++ and j++&lt;/span&gt;&lt;/div&gt;" style="text;html=1;align=center;verticalAlign=middle;resizable=0;points=[];autosize=1;strokeColor=none;fillColor=none;fontSize=10;" vertex="1" parent="1">
                    <mxGeometry x="-10" y="318.04" width="200" height="60" as="geometry"/>
                </mxCell>
                <mxCell id="53" value="" style="shape=stencil(7VpJchw3EHzNXBEoFNazLP9DEaJMhmlSQVFefu+Cx2g2Ej3ZUoQPPuhGjSobSy3ILOCi777cf/h8dwn+y+vL8693fzx8fL2/6E+XEB6e7u9eHl7tr4u+v+i7T88vd7+8PH99+nj99+cP3bL/9dvz7/0Lf15xQZz6jgr+r+sv3on+88PPV/vHh6e9fXZ5trcP1Nv2Ki7LZB9c9MQ+utbAvpH5aHOSJnsdEzy0j/bfOtlHp+T7sbg2rzc5Id9P4koE+1KIfXIxTPZ5/HBsX12Z51+cJ9/Py3yKq2S9Obo47391LRJ7m26d48E7TQRQcEIirrEVVIwgUVdIyOXm/LxFklwje2ojVFhDdUEoIM1Os6xJJCoMIHMUWVhXtobi4ryGHndslywvIW+KC8wP2XmYkqUSW3RyOjtOvStsWyNOSQPNHQOE2Q+qtLhkHbVhA9iYmQIgljRxP6hLsGjLN7ZLBoB6ZL7nU0qwS80pH6HOU4p+5OCtbdV5hGhFmcWS1aQ8A8KoOrdiqQHAUrTRfIAqH+MoC4eAIi7NjotpuPIYEDGBYh7bcAxY6pKVfk8SqArmgwESyYeanK8IYIWsWl3yCKhkDc0WLcsIZA0tu9AQENkIBWtrB5BYMkDJyy4Rx7XqYkIAO9FbG2761kU3rN79kCfhbYAKI9TBOg4B4j0WV0Ow6LMhWkVA5nP6l1bsAJU5oi2x0UY83nIEMB8DsBPFAKEggC7aImEBRFIrLb5DXKbEUq5hve9TInWmrglh0cJyVJeEaKMYHteZOvj1RhDFebKGktBxySg0q5U6isQGiDSpy3IqGivNfIQ4Oy5lGnwGgCMoVSozOmBOudSobuiAOVqzH5XnFiDMhSkHmtQGkHkNWWmKdsC8BjtYGVfvgDk0OrvmjpPZccYbGzsVLVphDY3Knw6Y61LxtLh2wBwaJVD+0/0AIxgj4lMCBWdnPfV0HIxtA+SRtLcAoHGNHLCqYSkKVcOyvDA/ZJxS9SO6bgGAnRj9oCOUIUg2gHI/VHRcjbwILCLIiidNoDpU2AYoQyEcAxpGq9XzwBJoaQY0T9Vud9M8pRbOWKLOjms6qOytWAJq3BKVipZfQDaMpFH1mlBb2kHsieNSwfPBAJWEhp1oBaa0kYljgIwJ7ACsC/ImDHcAtq29yzOvYce5jjlZdCkvQ5A5bRppvwbCBASDtduT2POo+8w+Ez/7wXT2TiDz90hMzD6Q+fvBQnb2nrjA5rOEXSMO8Mv+Vyr5BGl944xY8Fgwe8bcggvfaV+WrMmk3Okgy/v1sk4pkuG+n/T7ZUkZIfupo5rv7NnRr4Nv7eyZcAso6Xs8k/kHbDK0RpmFDIb5zfkIvOLk+/6gyLFekh+7t98fmr9+mT9rlC4SsjV6vBqBgPytVIh4bJD0+KT5Dk3SHv/k+3Lw/cRK+lKv6siI/8S+HwDLAhg56BmzZDADqByUCLal0WNXq6+B3UbUJQkqbdqaLlNYNG9SmQgCLWj0gxFNUxwgi4zgUIVgiQOBGjkNDKjUjHNRCqVLaQm0TdAVM2zrxsJuAcq8rfVUR8Fpb9z3ZAQBwp/5CAH5ivF3xuq6LpsTqColFEXQcTXQXnhZwttUDtOzJkaBjncJwKK1YtvMCDprCxtA59AwZRX4zQ2Kx8jpeBnpstOzjNf1qx5YA1fMuWD35USTdwA0Ini0dsAcfCd9hQ6YHXfSuTAANIROeiMdAO0a3n3pAGgI8f6OAbAhxDtIHQCdPN7vPABUfiFWsKPa+2wcoABI/G6ooI5Kkd8CLu35FPguNSyVScYnbpUZnBK/UbaEBKZ90ncuyy71ZjtJUStbcM8YK618b6V3A5Qhf44By8Eet3A8boWHg3sV1lH9cdUzAD+ueg4c8b+76slLyjWaQZYQsiya9V8s5aDenwEUFdDJ3VBp2LLp28paqhE1aA8NBjCaulz40uc9y6kYM71S7m8yYJcSP4JkqQKROi4vjaqotMubNhW2AYQmtQGw9HkqRfuxPDtO2/jEzRHgIcr2iVsA4D+az9aQ4W1MGg2gY0DD/pxGSgXSclCr8idHHomrCeDK3ooJtpTUn4lR6OEE3hPLy/1WKNQPBoCMC8ZDWbQu+dBfcrERIrL13nnhIyR4vnbyGi1ieEum5T4v+lgiBwTUAxLoBcDqaRFO7z1eAIinys94LZwPlXINY6kNRNPZnYfiu0khW2RVEdrbmZIlK1nwzjLRx3T92RkU7kEjju3DUiQpnwwNOTFXrSHixXCg9rLcFgrt4Zi9hxgdEzy2X2S30KSRgvvPX2F0e3wnzQ5aWUS657cXBds3nqokWfoSnt7uyMK1Pee1S2fF09dw0pDg8eu4Pvx32gOt8PSS87vftZ/a2x9vj+g/PTw+Xt/g7/8fH93bT9cH+/r+bw==);lineShape=1;fontSize=10;" vertex="1" parent="1">
                    <mxGeometry x="-98.05950566274396" y="213.47611918710186" width="13.26002664270796" height="40.57677493632938" as="geometry"/>
                </mxCell>
                <mxCell id="54" value="" style="shape=stencil(lVfbchsxCP0avzKSkIR4TtP/yEyc2lM3zjhOL39f1K1cgyO2eVuvOQuIwwFt8O519/Cy3aTwej4dv25/7B/Puw1+2qS0f95tT/uzPG3wfoN3T8fT9svp+Pb8uPx+eeiW/enb8Xv/ws8FFwBLB6Xwa3lRE8T8583nxf6wf76yT0BB2ZcINc3tC5Sk7JGBw9yeoEVtLx7j3D4GaKQA4jJ6gAyEChAJ0AMwFJ0yQ3bsu3/tAIFobo8RCuuAANmxb9Casg9uPLkCF2MfnAqUYuPJkNvcvmZIWccfITiUoAS5akCDXBwAQ9Mnmurw+S6gVYg6BZQgnZw5QdUh5eKSgsl6KBISOgCGqnlahblO0gIgXeYagZ2kBWA6QSrzN6sZwBCjNiA/JNZJk0/tGC5UuyB4HNzUhU6i5cGWKUALRmMIXuXkmLQiSfHRSaIXwgAyRKcheqmjBSTfg1WY5IoqXxToKuns8ZutzMuxsl9q1ElL4cjntwVkwJWQdMtVhuQXLmsVqGWt0mb2rMy2XjjjIQytnVJDS5/0KPqAZgA41HZKbxMSQVrpBy0bIrfBKdx7PUprSRgXTWb0Skw6iUZQfW40TVeOa/wmA/CVqZdaF0J6NK9w42MAmRCm5SSrlRmkPVAb2jadckbwaWjbdI7qhijs8rtPah1SSe5y1XcBXemc3fXtdtmQ9cab1LfbDOIYlNN16XYXcKRP9rGq+wFlF3A6qC98+pTQr0O8EaaMQ3mmO6vWStm6/cFrp2KvtKMzErARYwJ2UpCyGZUpUJ3vpxHupRmaOxKD1formZoAUAPYTzjYpZUbVIdGAaI+IK7uzirRataJIHkkEnsdT7ssBTN7swGUoQYze03qFsaW8n/fpwrB/75uS4puD8h56nhk94y+vdmGy6jIrL6G0DiuZTP+fOgevG4vD/8u3U/7w2G5s1//by/p8mq54OP9bw==);lineShape=1;fontSize=10;" vertex="1" parent="1">
                    <mxGeometry x="-78.96984859470581" y="230.28794098174512" width="63.36759902926944" height="1.2940714221402865" as="geometry"/>
                </mxCell>
                <mxCell id="55" value="" style="shape=stencil(lVfLctswDPwaXTEEwec5Tf8jM3FqT1074zh9/H2hauiKoLWZ3GxpKQG7WACa5OFt//S6m7x7u17O33e/Ds/X/SRfJu8Pp/3ucrjqr0keJ3l4OV923y7n99Pz8v/1aUbOv36cf85P+L2ci5mcm09592e54ojjvwtfF/zxcFrhU6UcOrwQp218ziTS4QMFgC+BUu7wkWrdxlem1MdfKILnV83Xd3j2LcK7B9g5yxBnKugVlVzsDmjO4sGBQGw45XblPkmJpPYHCjFgKad2+6ZCIp+BzCpDH1IMVEFdRG91SEIFhBQcSS909vANXiup9Ep7YqBcotjLMAtTQAqUxOITeH6gyBZfgWpCMuJBPL4ZcYXPgCC+g/fg+Y5C74RamoYbeNeXhHopA4VHfIL8aDxi8Uhfbo3nho8UUAEN+AD5l2baFR7xr/Uw4AvgM1qLafzMsJ6HfBPwcCYuls8A4skD/5k84F/92Dte6wf5K7VqWeELailUTb6VAshX1XQWj/q0UO79uGr1GwVkBcYv4Dbp1gkAvBsakBIEDcMD3gGChkE2CwzmkiNv4r/NnQ18MQWnBQrz/RxeCTUK5wIHq+iu0Zecri8ODSVNsE85qsTAA7o+FTMnHcwhFRtSYMrIxdnOSZE2eO4vB3q7p3XuBCCHku1yoJWegJFLaXNltRFFYJzCdvSxwC0z6/rRzzJm2NvTsMaqbqAyolA120cz99Z6k5PBowSiitr3igRnq1ZN6TWIzRxbeDF116btFt71kgW4Ycahtwh5UHSKjz3/HjozDssKf8S/6/l3sPWqvpwNXhBeOwUbPGqlMdrhgUfHZz+zPsbrj//fdC+H43H5JFzft9+Aemn5fpTHvw==);lineShape=1;fontSize=10;" vertex="1" parent="1">
                    <mxGeometry x="-18.406625087503926" y="227.65175030269575" width="6.386738483779086" height="9.029900785723603" as="geometry"/>
                </mxCell>
                <mxCell id="56" value="j wale sambhalo" style="text;html=1;align=center;verticalAlign=middle;resizable=0;points=[];autosize=1;strokeColor=none;fillColor=none;fontSize=10;" vertex="1" parent="1">
                    <mxGeometry x="-15.600000000000001" y="215.93" width="100" height="30" as="geometry"/>
                </mxCell>
            </root>
        </mxGraphModel>
    </diagram>
</mxfile>